<svg version="1.2" baseProfile="tiny" viewBox="0 0 226.427 172.803" xmlns:xlink="http://www.w3.org/1999/xlink" xmlns="http://www.w3.org/2000/svg">
<path style="fill:#ffffff;" d="M111.316,20.6189L111.316,22.6787L120.7875,22.6787L120.7875,20.5722C124.1046,18.8442,126.3689,15.3777,126.3689,11.3756C126.3689,5.6472,121.7249,1.0005,116.0008,1.0005C110.27,1.0005,105.6259,5.6472,105.6259,11.3739C105.6259,15.4175,107.9445,18.9081,111.316,20.6189M116.0008,4.3132C119.8999,4.3132,123.0608,7.4755,123.0608,11.3739C123.0608,13.5858,122.0238,15.5436,120.4252,16.8345C119.7187,15.5851,118.0273,14.7004,116.0506,14.7004C114.049,14.7004,112.3372,15.6076,111.6444,16.8898C110.0096,15.6024,108.9408,13.6221,108.9408,11.3722C108.9408,7.4755,112.1017,4.3132,116.0008,4.3132M225.4262,91.8794L225.4262,99.7799C225.4262,100.8012,224.5907,101.6375,223.5672,101.6375L192.429,101.6375L192.429,153.475C192.429,154.2422,191.8018,154.8695,191.0342,154.8695L190.1602,154.8695C189.3926,154.8695,188.7654,154.2422,188.7654,153.475L188.7654,151.9837C187.7895,152.8339,186.3992,153.4335,185.2331,153.4335L171.6883,153.4335L171.6883,157.9074L170.1576,157.9074L170.1576,158.2219L170.1576,161.0489L170.1576,171.8025L53.7266,171.8025L53.7266,171.8025L53.7266,162.8582L48.9467,162.8582L48.9467,164.7918L43.7208,164.7918L43.7208,162.8582L38.6941,162.8582L38.6941,161.9164L5.2395,160.5011C2.9073,160.5011,1.0008,158.5934,1.0008,156.2606L1.0008,36.1106C1.0008,33.7795,2.9073,31.8718,5.2395,31.8718L14.566,31.4761L14.566,27.5984L15.0551,27.5984L15.0551,25.7442L15.4853,25.7442L15.4853,25.3969L20.6751,25.3969L20.6751,25.7442L21.1053,25.7442L21.1053,27.5984L21.5921,27.5984L21.5921,31.1788L38.6941,30.4548L38.6941,29.513L43.7208,29.513L43.7208,27.7072L48.9467,27.7072L48.9467,29.513L53.7289,29.513L53.7289,31.3223L106.706,31.3223L108.1506,24.0507C108.3385,23.2956,109.1265,22.6787,109.9009,22.6787L122.0962,22.6787C122.8729,22.6787,123.6631,23.2956,123.8488,24.0507L125.2934,31.3223L168.7379,31.3223L170.1554,34.1493L170.1554,34.0215L171.686,34.0215L171.686,38.936L177.007,38.936L177.007,34.9408L177.4939,34.9408L177.4939,33.0866L177.9241,33.0866L177.9241,32.7375L183.1138,32.7375L183.1138,33.0866L183.544,33.0866L183.544,34.9408L184.0308,34.9408L184.0308,38.936L185.2331,38.936C186.3992,38.936,187.7895,39.5408,188.7654,40.391L188.7654,38.2759C188.7654,37.5086,189.3926,36.8813,190.1579,36.8813L191.0319,36.8813C191.7995,36.8813,192.429,37.5086,192.429,38.2759L192.429,90.02L223.5672,90.02C224.5907,90.02,225.4262,90.8564,225.4262,91.8794Z"/>
</svg>