<svg version="1.2" baseProfile="tiny" id="EdgeSVG_50y0j" x="0px" y="0px" width="226.427px" height="172.803px" viewBox="0 0 226.427 172.803" xmlns:xlink="http://www.w3.org/1999/xlink" xmlns="http://www.w3.org/2000/svg">
  <linearGradient id="SVGID_1_" gradientUnits="userSpaceOnUse" x1="0" y1="86.4019" x2="226.4268" y2="86.4019">
    <stop offset="0" style="stop-color:#000000;stop-opacity:0.5"/>
    <stop offset="1" style="stop-color:#000000;stop-opacity:0.5"/>
  </linearGradient>
  <path fill="url(#SVGID_1_)" d="M223.567,89.02h-30.139V38.275c0-1.32-1.074-2.394-2.395-2.394h-0.874&#xD;&#xA;&#x9;&#x9;c-1.32,0-2.394,1.074-2.394,2.394v0.286c-0.838-0.397-1.723-0.626-2.532-0.626h-0.202V33.94h-0.487v-1.854h-0.431v-0.349h-7.189&#xD;&#xA;&#x9;&#x9;v0.349h-0.43v1.854h-0.488v3.996h-3.319v-4.914h-1.977l-1.354-2.7h-43.242l-1.295-6.51c-0.295-1.196-1.491-2.134-2.723-2.134h-0.31&#xD;&#xA;&#x9;&#x9;v-0.549c3.449-2.044,5.582-5.714,5.582-9.755C127.369,5.103,122.269,0,116,0c-6.271,0-11.374,5.103-11.374,11.374&#xD;&#xA;&#x9;&#x9;c0,4.085,2.174,7.775,5.689,9.809v0.495h-0.413c-1.231,0-2.427,0.937-2.732,2.178l-1.284,6.465H54.729v-1.809h-4.782v-1.806h-7.226&#xD;&#xA;&#x9;&#x9;v1.806h-5.027v0.984l-15.102,0.639v-3.537h-0.487v-1.854h-0.431v-0.349h-7.189v0.349h-0.431v1.854h-0.487v3.919L5.24,30.871&#xD;&#xA;&#x9;&#x9;c-2.89,0-5.24,2.351-5.24,5.24v120.15c0,2.89,2.35,5.24,5.196,5.24c0,0,25.16,1.064,32.497,1.374v0.983h5.027v1.934l7.226-0.001&#xD;&#xA;&#x9;&#x9;v-1.933h2.78v8.944h118.43V162.05v-3.143h1.531v-4.474h12.546c0.821,0,1.718-0.233,2.564-0.638&#xD;&#xA;&#x9;&#x9;c0.158,1.168,1.151,2.074,2.362,2.074h0.874c1.32,0,2.395-1.074,2.395-2.395v-50.837h30.139c1.577,0,2.859-1.282,2.859-2.858&#xD;&#xA;&#x9;&#x9;v-7.901C226.427,90.302,225.145,89.02,223.567,89.02z M116,5.314c3.341,0,6.06,2.719,6.06,6.06c0,1.481-0.558,2.886-1.544,3.987&#xD;&#xA;&#x9;&#x9;c-1.067-1.03-2.696-1.66-4.465-1.66c-1.807,0-3.457,0.651-4.52,1.712c-1.016-1.106-1.591-2.53-1.591-4.04&#xD;&#xA;&#x9;&#x9;C109.94,8.033,112.659,5.314,116,5.314z"/>
</svg>